<?xml version='1.0' encoding='utf-8'?>
<svg xmlns="http://www.w3.org/2000/svg" version="1.1" viewBox="0 0 680 500"> <rect y="-1.5259e-5" width="680" height="500" rx="0" ry="0" clip-rule="nonzero" color="#000000" color-rendering="auto" enable-background="accumulate" fill="#fff" fill-rule="evenodd" image-rendering="auto" shape-rendering="auto" solid-color="#000000" style="isolation:auto;mix-blend-mode:normal"/> <g transform="translate(0 -552.36)"> <g transform="translate(-31.991 -1.7324)" clip-rule="nonzero" shape-rendering="auto"> <circle transform="translate(0 552.36)" cx="352.59" cy="260.29" r="187.91" color="#000000" color-rendering="auto" enable-background="accumulate" fill="#5aeaad" fill-rule="evenodd" image-rendering="auto" solid-color="#000000" style="isolation:auto;mix-blend-mode:normal"/> <rect transform="translate(0 552.36)" x="207.44" y="182.72" width="27.009" height="66.944" rx="0" ry="0" color="#000000" color-rendering="auto" enable-background="accumulate" fill="#f49c9c" fill-rule="evenodd" image-rendering="auto" solid-color="#000000" style="isolation:auto;mix-blend-mode:normal"/> <rect transform="translate(0 552.36)" x="246.19" y="154.15" width="27.009" height="95.51" rx="0" ry="0" color="#000000" color-rendering="auto" enable-background="accumulate" fill="#9ce5f4" fill-rule="evenodd" image-rendering="auto" solid-color="#000000" style="isolation:auto;mix-blend-mode:normal"/> <rect transform="translate(0 552.36)" x="284.94" y="189.41" width="27.009" height="60.251" rx="0" ry="0" color="#000000" color-rendering="auto" enable-background="accumulate" fill="#faa3d3" fill-rule="evenodd" image-rendering="auto" solid-color="#000000" style="isolation:auto;mix-blend-mode:normal"/> <rect transform="translate(0 552.36)" x="323.7" y="135.01" width="27.009" height="114.65" rx="0" ry="0" color="#000000" color-rendering="auto" enable-background="accumulate" fill="#f4e19c" fill-rule="evenodd" image-rendering="auto" solid-color="#000000" style="isolation:auto;mix-blend-mode:normal"/> <path transform="translate(0 552.36)" d="m188.87 249.66h180.4" color="#000000" color-rendering="auto" enable-background="accumulate" fill="#bde1ec" fill-opacity=".070093" fill-rule="evenodd" image-rendering="auto" solid-color="#000000" stroke="#333" stroke-linecap="round" stroke-linejoin="round" stroke-width="8" style="isolation:auto;mix-blend-mode:normal"/> <g transform="matrix(-.15673 -.98764 .98764 -.15673 206.77 1340.9)"> <circle cx="440" cy="306" r="62" color="#000000" color-rendering="auto" enable-background="accumulate" fill="#f4e19c" fill-rule="evenodd" image-rendering="auto" solid-color="#000000" style="isolation:auto;mix-blend-mode:normal"/> <path d="m477.96 256.98-37.96 49.021 56.468 25.599 3.2664-42.205z" color="#000000" color-rendering="auto" enable-background="accumulate" fill="#caddea" fill-rule="evenodd" image-rendering="auto" solid-color="#000000" style="isolation:auto;mix-blend-mode:normal"/> <path d="m440 306-45.442 42.178 21.17 14.873 13.998 4.0913 19.077 0.22902 16.471-4.7573 16.942-11.208 11.338-14.167 5.6235-12.747z" color="#000000" color-rendering="auto" enable-background="accumulate" fill="#f38888" fill-rule="evenodd" image-rendering="auto" solid-color="#000000" style="isolation:auto;mix-blend-mode:normal"/> <path d="m440 306-60.412-13.941 4.5216 40.779 10.449 15.341 7.6519 6.9736z" color="#000000" color-rendering="auto" enable-background="accumulate" fill="#d7abb5" fill-rule="evenodd" image-rendering="auto" solid-color="#000000" style="isolation:auto;mix-blend-mode:normal"/> <path d="m440 244v62l43.841-43.841-20.942-13.776z" color="#000000" color-rendering="auto" enable-background="accumulate" fill="#eef6b2" fill-rule="evenodd" image-rendering="auto" solid-color="#000000" style="isolation:auto;mix-blend-mode:normal"/> <circle cx="440" cy="306" r="62" color="#000000" color-rendering="auto" enable-background="accumulate" fill="none" image-rendering="auto" solid-color="#000000" stroke="#333" stroke-linecap="round" stroke-linejoin="round" stroke-width="8" style="isolation:auto;mix-blend-mode:normal"/> <path d="m499.18 324.49-59.178-18.493" color="#000000" color-rendering="auto" enable-background="accumulate" fill="none" image-rendering="auto" solid-color="#000000" stroke="#333" stroke-linecap="round" stroke-linejoin="round" stroke-width="8" style="isolation:auto;mix-blend-mode:normal"/> <path d="m402.21 355.15 37.79-49.152-60.412-13.941" color="#000000" color-rendering="auto" enable-background="accumulate" fill="none" image-rendering="auto" solid-color="#000000" stroke="#333" stroke-linecap="round" stroke-linejoin="round" stroke-width="8" style="isolation:auto;mix-blend-mode:normal"/> <path d="m440 244v62l43.841-43.841" color="#000000" color-rendering="auto" enable-background="accumulate" fill="none" image-rendering="auto" solid-color="#000000" stroke="#333" stroke-linecap="round" stroke-linejoin="round" stroke-width="8" style="isolation:auto;mix-blend-mode:normal"/> </g> <circle transform="translate(0 552.36)" cx="440.03" cy="305.97" r="58" color="#000000" color-rendering="auto" enable-background="accumulate" fill="none" image-rendering="auto" solid-color="#000000" stroke="#000" stroke-linecap="round" stroke-linejoin="round" stroke-opacity=".14019" stroke-width="8" style="isolation:auto;mix-blend-mode:normal"/> <rect transform="translate(0 552.36)" x="207.44" y="182.72" width="27.009" height="66.944" rx="0" ry="0" color="#000000" color-rendering="auto" enable-background="accumulate" fill="none" image-rendering="auto" solid-color="#000000" stroke="#333" stroke-linecap="butt" stroke-linejoin="round" stroke-width="8" style="isolation:auto;mix-blend-mode:normal"/> <rect transform="translate(0 552.36)" x="246.19" y="154.15" width="27.009" height="95.51" rx="0" ry="0" color="#000000" color-rendering="auto" enable-background="accumulate" fill="none" image-rendering="auto" solid-color="#000000" stroke="#333" stroke-linecap="butt" stroke-linejoin="round" stroke-width="8" style="isolation:auto;mix-blend-mode:normal"/> <rect transform="translate(0 552.36)" x="284.94" y="189.41" width="27.009" height="60.251" rx="0" ry="0" color="#000000" color-rendering="auto" enable-background="accumulate" fill="none" image-rendering="auto" solid-color="#000000" stroke="#333" stroke-linecap="butt" stroke-linejoin="round" stroke-width="8" style="isolation:auto;mix-blend-mode:normal"/> <rect transform="translate(0 552.36)" x="323.7" y="135.01" width="27.009" height="114.65" rx="0" ry="0" color="#000000" color-rendering="auto" enable-background="accumulate" fill="none" image-rendering="auto" solid-color="#000000" stroke="#333" stroke-linecap="butt" stroke-linejoin="round" stroke-width="8" style="isolation:auto;mix-blend-mode:normal"/> <circle transform="translate(0 552.36)" cx="352.59" cy="260.29" r="187.91" color="#000000" color-rendering="auto" enable-background="accumulate" fill="none" image-rendering="auto" solid-color="#000000" stroke="#333" stroke-linecap="butt" stroke-linejoin="round" stroke-width="8" style="isolation:auto;mix-blend-mode:normal"/> <path transform="translate(0 552.36)" d="m352.59 72.377a187.91 187.91 0 0 0-187.92 187.92 187.91 187.91 0 0 0 58.467 135.91 187.91 187.91 0 0 1-50.467-127.91 187.91 187.91 0 0 1 187.92-187.92 187.91 187.91 0 0 1 129.45 52.004 187.91 187.91 0 0 0-137.45-60.004z" color="#000000" color-rendering="auto" enable-background="accumulate" fill-opacity=".093458" fill-rule="evenodd" image-rendering="auto" solid-color="#000000" style="isolation:auto;mix-blend-mode:normal"/> <rect transform="translate(0 552.36)" x="388.2" y="43.209" width="246.07" height="169.71" rx="9.8995" ry="9.8995" color="#000000" color-rendering="auto" enable-background="accumulate" fill="#fff" fill-rule="evenodd" image-rendering="auto" solid-color="#000000" style="isolation:auto;mix-blend-mode:normal"/> <path transform="translate(0 552.36)" d="m388.2 69.372-0.35355-20.86 7.0711-4.9498 231.22-0.35355 7.4246 3.182 0.35355 23.335z" color="#000000" color-rendering="auto" enable-background="accumulate" fill="#d2d2d2" fill-rule="evenodd" image-rendering="auto" solid-color="#000000" style="isolation:auto;mix-blend-mode:normal"/> <path transform="translate(0 552.36)" d="m388.2 69.018h246.07" color="#000000" color-rendering="auto" enable-background="accumulate" fill="#fff" fill-rule="evenodd" image-rendering="auto" solid-color="#000000" stroke="#333" stroke-linecap="round" stroke-linejoin="round" stroke-width="6" style="isolation:auto;mix-blend-mode:normal"/> <rect transform="translate(0 552.36)" x="388.2" y="43.209" width="246.07" height="169.71" rx="9.8995" ry="9.8995" color="#000000" color-rendering="auto" enable-background="accumulate" fill="none" image-rendering="auto" solid-color="#000000" stroke="#333" stroke-linecap="butt" stroke-linejoin="miter" stroke-width="6" style="isolation:auto;mix-blend-mode:normal"/> <circle transform="translate(0 552.36)" cx="620.95" cy="55.918" r="6.364" color="#000000" color-rendering="auto" enable-background="accumulate" fill="#838383" fill-rule="evenodd" image-rendering="auto" solid-color="#000000" style="isolation:auto;mix-blend-mode:normal"/> <circle transform="translate(0 552.36)" cx="604.72" cy="55.918" r="6.364" color="#000000" color-rendering="auto" enable-background="accumulate" fill="#a6a6a6" fill-rule="evenodd" image-rendering="auto" solid-color="#000000" style="isolation:auto;mix-blend-mode:normal"/> <rect transform="translate(0 552.36)" x="397.04" y="78.918" width="228.4" height="124.45" rx="3.8891" ry="3.8891" color="#000000" color-rendering="auto" enable-background="accumulate" fill="#bad4db" fill-opacity=".41589" fill-rule="evenodd" image-rendering="auto" solid-color="#000000" style="isolation:auto;mix-blend-mode:normal"/> <path transform="translate(0 552.36)" d="m610.58 94.625a2.0002 2.0002 0 0 0-1.5215 0.72656l-27.561 32.418-27.156-7.4668a2.0002 2.0002 0 0 0-1.7441 0.33789l-28.379 21.682a2.0002 2.0002 0 0 0-0.42578 0.4414l-27.514 39.291-26.885-9.6504-28.326-12.332a2.0002 2.0002 0 0 0-2.0977 0.31445l-28.385 24.281a2.0004 2.0004 0 1 0 2.5996 3.041l27.434-23.469 27.238 11.857a2.0002 2.0002 0 0 0 0.12305 0.0488l28.385 10.189a2.0002 2.0002 0 0 0 2.3144-0.73438l28.213-40.289 27.346-20.891 27.43 7.541a2.0002 2.0002 0 0 0 2.0527-0.63281l28.385-33.387a2.0002 2.0002 0 0 0-1.5254-3.3184z" color="#000000" color-rendering="auto" enable-background="accumulate" fill="#9ed0f5" fill-rule="evenodd" image-rendering="auto" solid-color="#000000" style="block-progression:tb;isolation:auto;mix-blend-mode:normal;text-decoration-color:#000000;text-decoration-line:none;text-decoration-style:solid;text-indent:0;text-transform:none;white-space:normal"/> <path transform="translate(0 552.36)" d="m618.23 94.625a5.6245 5.6245 0 0 1-5.6244 5.6245 5.6245 5.6245 0 0 1-5.6244-5.6245 5.6245 5.6245 0 0 1 5.6244-5.6245 5.6245 5.6245 0 0 1 5.6244 5.6245z" color="#000000" color-rendering="auto" enable-background="accumulate" fill="#9ed0f5" fill-rule="evenodd" image-rendering="auto" solid-color="#000000" style="isolation:auto;mix-blend-mode:normal"/> <path transform="translate(0 552.36)" d="m587.15 129.97a5.6245 5.6245 0 0 1-5.6244 5.6244 5.6245 5.6245 0 0 1-5.6244-5.6244 5.6245 5.6245 0 0 1 5.6244-5.6244 5.6245 5.6245 0 0 1 5.6244 5.6244z" color="#000000" color-rendering="auto" enable-background="accumulate" fill="#9ed0f5" fill-rule="evenodd" image-rendering="auto" solid-color="#000000" style="isolation:auto;mix-blend-mode:normal"/> <path transform="translate(0 552.36)" d="m559.15 122.85a5.6245 5.6245 0 0 1-5.6244 5.6244 5.6245 5.6245 0 0 1-5.6244-5.6244 5.6245 5.6245 0 0 1 5.6244-5.6244 5.6245 5.6245 0 0 1 5.6244 5.6244z" color="#000000" color-rendering="auto" enable-background="accumulate" fill="#9ed0f5" fill-rule="evenodd" image-rendering="auto" solid-color="#000000" style="isolation:auto;mix-blend-mode:normal"/> <path transform="translate(0 552.36)" d="m531.27 144.04a5.6245 5.6245 0 0 1-5.6244 5.6244 5.6245 5.6245 0 0 1-5.6244-5.6244 5.6245 5.6245 0 0 1 5.6244-5.6244 5.6245 5.6245 0 0 1 5.6244 5.6244z" color="#000000" color-rendering="auto" enable-background="accumulate" fill="#9ed0f5" fill-rule="evenodd" image-rendering="auto" solid-color="#000000" style="isolation:auto;mix-blend-mode:normal"/> <path transform="translate(0 552.36)" d="m503.02 184.04a5.6245 5.6245 0 0 1-5.6244 5.6244 5.6245 5.6245 0 0 1-5.6244-5.6244 5.6245 5.6245 0 0 1 5.6244-5.6244 5.6245 5.6245 0 0 1 5.6244 5.6244z" color="#000000" color-rendering="auto" enable-background="accumulate" fill="#9ed0f5" fill-rule="evenodd" image-rendering="auto" solid-color="#000000" style="isolation:auto;mix-blend-mode:normal"/> <path transform="translate(0 552.36)" d="m472.52 173.79a5.6245 5.6245 0 0 1-5.6244 5.6244 5.6245 5.6245 0 0 1-5.6244-5.6244 5.6245 5.6245 0 0 1 5.6244-5.6244 5.6245 5.6245 0 0 1 5.6244 5.6244z" color="#000000" color-rendering="auto" enable-background="accumulate" fill="#9ed0f5" fill-rule="evenodd" image-rendering="auto" solid-color="#000000" style="isolation:auto;mix-blend-mode:normal"/> <path transform="translate(0 552.36)" d="m446.27 162.54a5.6245 5.6245 0 0 1-5.6244 5.6244 5.6245 5.6245 0 0 1-5.6244-5.6244 5.6245 5.6245 0 0 1 5.6244-5.6244 5.6245 5.6245 0 0 1 5.6244 5.6244z" color="#000000" color-rendering="auto" enable-background="accumulate" fill="#9ed0f5" fill-rule="evenodd" image-rendering="auto" solid-color="#000000" style="isolation:auto;mix-blend-mode:normal"/> <path transform="translate(0 552.36)" d="m417.77 186.54a5.6245 5.6245 0 0 1-5.6244 5.6244 5.6245 5.6245 0 0 1-5.6244-5.6244 5.6245 5.6245 0 0 1 5.6244-5.6244 5.6245 5.6245 0 0 1 5.6244 5.6244z" color="#000000" color-rendering="auto" enable-background="accumulate" fill="#9ed0f5" fill-rule="evenodd" image-rendering="auto" solid-color="#000000" style="isolation:auto;mix-blend-mode:normal"/> <g fill-rule="evenodd"> <rect x="126.82" y="845.79" width="235.18" height="163.32" ry="0" color="#000000" color-rendering="auto" enable-background="accumulate" fill="#fff" image-rendering="auto" solid-color="#000000" stroke="#333" stroke-linecap="round" stroke-linejoin="round" stroke-width="6" style="isolation:auto;mix-blend-mode:normal"/> <rect x="143.26" y="861.77" width="202.31" height="131.37" ry="0" color="#000000" color-rendering="auto" enable-background="accumulate" fill="#9ed0f5" image-rendering="auto" solid-color="#000000" stroke="#333" stroke-linecap="butt" stroke-linejoin="miter" stroke-width="6" style="isolation:auto;mix-blend-mode:normal"/> <rect x="161.41" y="879.95" width="39.509" height="20.252" color="#000000" color-rendering="auto" enable-background="accumulate" fill="#c0edef" fill-opacity=".64953" image-rendering="auto" solid-color="#000000" style="isolation:auto;mix-blend-mode:normal"/> <rect x="206.92" y="879.95" width="39.509" height="20.252" color="#000000" color-rendering="auto" enable-background="accumulate" fill="#f7f9da" fill-opacity=".64953" image-rendering="auto" solid-color="#000000" style="isolation:auto;mix-blend-mode:normal"/> <rect x="161.41" y="906.21" width="39.509" height="20.252" color="#000000" color-rendering="auto" enable-background="accumulate" fill="#fff" fill-opacity=".64953" image-rendering="auto" solid-color="#000000" style="isolation:auto;mix-blend-mode:normal"/> <rect x="206.92" y="906.21" width="39.509" height="20.252" color="#000000" color-rendering="auto" enable-background="accumulate" fill="#c0edef" fill-opacity=".64953" image-rendering="auto" solid-color="#000000" style="isolation:auto;mix-blend-mode:normal"/> <rect x="161.41" y="932.46" width="39.509" height="20.252" color="#000000" color-rendering="auto" enable-background="accumulate" fill="#c0edef" fill-opacity=".64953" image-rendering="auto" solid-color="#000000" style="isolation:auto;mix-blend-mode:normal"/> <rect x="206.92" y="932.46" width="39.509" height="20.252" color="#000000" color-rendering="auto" enable-background="accumulate" fill="#fff" fill-opacity=".64953" image-rendering="auto" solid-color="#000000" style="isolation:auto;mix-blend-mode:normal"/> <rect x="161.41" y="958.71" width="39.509" height="20.252" color="#000000" color-rendering="auto" enable-background="accumulate" fill="#f7f9da" fill-opacity=".64953" image-rendering="auto" solid-color="#000000" style="isolation:auto;mix-blend-mode:normal"/> <rect x="206.92" y="958.71" width="39.509" height="20.252" color="#000000" color-rendering="auto" enable-background="accumulate" fill="#f7f9da" fill-opacity=".64953" image-rendering="auto" solid-color="#000000" style="isolation:auto;mix-blend-mode:normal"/> <path d="m324.9 908.92a28.524 28.524 0 0 1-22.78 27.939 28.524 28.524 0 0 1-31.954-16.687 28.524 28.524 0 0 1 9.9104-34.66 28.524 28.524 0 0 1 35.946 2.7279l-19.646 20.68z" color="#000000" color-rendering="auto" enable-background="accumulate" fill="#9cebe0" image-rendering="auto" solid-color="#000000" stroke="#333" stroke-linecap="round" stroke-linejoin="round" stroke-width="4" style="isolation:auto;mix-blend-mode:normal"/> <path d="m261.41 944.44v34.521c6e-5 0.55226 0.44774 0.99994 1 1h60.672v-2h-59.672v-33.521z" color="#000000" color-rendering="auto" enable-background="accumulate" fill="#ddeffc" image-rendering="auto" solid-color="#000000" style="block-progression:tb;isolation:auto;mix-blend-mode:normal;text-decoration-color:#000000;text-decoration-line:none;text-decoration-style:solid;text-indent:0;text-transform:none;white-space:normal"/> <path d="m109.66 991.75c0 11.56 7.1041 20.867 15.928 20.867h237.64c8.8239 0 15.928-9.307 15.928-20.867z" color="#000000" color-rendering="auto" enable-background="accumulate" fill="#fff" image-rendering="auto" solid-color="#000000" stroke="#333" stroke-linecap="butt" stroke-linejoin="miter" stroke-width="6" style="isolation:auto;mix-blend-mode:normal"/> <rect x="210.75" y="989.92" width="67.322" height="8.9225" rx="4.4612" ry="4.4612" color="#000000" color-rendering="auto" enable-background="accumulate" fill="#333" image-rendering="auto" solid-color="#000000" style="isolation:auto;mix-blend-mode:normal"/> </g> </g> </g> </svg>