<?xml version='1.0' encoding='utf-8'?>
<svg xmlns="http://www.w3.org/2000/svg" version="1.1" viewBox="0 0 500 350"> <g transform="translate(0 -702.36)"> <rect x="-1.5259e-5" y="702.36" width="500" height="350" clip-rule="nonzero" color="#000000" color-rendering="auto" enable-background="accumulate" fill="#75d4ff" fill-rule="evenodd" image-rendering="auto" shape-rendering="auto" solid-color="#000000" style="isolation:auto;mix-blend-mode:normal"/> </g> <g clip-rule="nonzero" shape-rendering="auto"> <path d="m250 69.551a205.75 205.75 0 0 0-205.75 205.75h411.5a205.75 205.75 0 0 0-205.75-205.75z" color="#000000" color-rendering="auto" enable-background="accumulate" fill="#8181cd" fill-opacity=".14953" fill-rule="evenodd" image-rendering="auto" solid-color="#000000" style="isolation:auto;mix-blend-mode:normal"/> <rect x="142.86" y="121.29" width="214.28" height="149.51" ry="3.2827" color="#000000" color-rendering="auto" enable-background="accumulate" fill="#fff" fill-rule="evenodd" image-rendering="auto" solid-color="#000000" stroke="#346288" stroke-linecap="butt" stroke-linejoin="miter" stroke-miterlimit="4" stroke-width="4" style="isolation:auto;mix-blend-mode:normal"/> <rect x="114.82" y="261.93" width="270.36" height="13.366" ry="3.2827" color="#000000" color-rendering="auto" enable-background="accumulate" fill="#fff" fill-rule="evenodd" image-rendering="auto" solid-color="#000000" stroke="#346288" stroke-linecap="butt" stroke-linejoin="miter" stroke-miterlimit="4" stroke-width="4" style="isolation:auto;mix-blend-mode:normal"/> <rect x="150.25" y="128.66" width="199.51" height="125.91" color="#000000" color-rendering="auto" enable-background="accumulate" fill="#75d4ff" fill-rule="evenodd" image-rendering="auto" solid-color="#000000" stroke="#346288" stroke-linecap="butt" stroke-linejoin="miter" stroke-miterlimit="4" stroke-width="4" style="isolation:auto;mix-blend-mode:normal"/> <path d="m220.46 261.93c0 2.2415 1.8077 4.0457 4.0536 4.0457h50.962c2.2458 0 4.0552-1.8042 4.0552-4.0457h-59.071z" color="#000000" color-rendering="auto" enable-background="accumulate" fill="#346288" fill-rule="evenodd" image-rendering="auto" solid-color="#000000" style="isolation:auto;mix-blend-mode:normal"/> <path d="m26.56 275.3h446.88" color="#000000" color-rendering="auto" enable-background="accumulate" fill="#4b5420" fill-rule="evenodd" image-rendering="auto" solid-color="#000000" stroke="#346288" stroke-linecap="round" stroke-linejoin="round" stroke-miterlimit="4" stroke-width="4" style="isolation:auto;mix-blend-mode:normal"/> <path d="m166.71 153.9c-1.108 0-2 0.892-2 2v4.2526l24.402 2.9175 24.402-2.9175v-4.2526c0-1.108-0.892-2-2-2z" color="#000000" color-rendering="auto" enable-background="accumulate" fill="#f0f0f0" fill-rule="evenodd" image-rendering="auto" solid-color="#000000" style="isolation:auto;mix-blend-mode:normal"/> <path d="m164.71 160.15v71.451c0 1.108 0.892 2 2 2h44.805c1.108 0 2-0.892 2-2v-71.451h-48.805z" color="#000000" color-rendering="auto" enable-background="accumulate" fill="#fff" fill-rule="evenodd" image-rendering="auto" solid-color="#000000" style="isolation:auto;mix-blend-mode:normal"/> <circle cx="167.84" cy="157.03" r="1.7843" color="#000000" color-rendering="auto" enable-background="accumulate" fill="#d4d4d4" fill-rule="evenodd" image-rendering="auto" solid-color="#000000" style="isolation:auto;mix-blend-mode:normal"/> <circle cx="167.84" cy="157.03" r="1.7843" color="#000000" color-rendering="auto" enable-background="accumulate" fill="#75d4ff" fill-rule="evenodd" image-rendering="auto" solid-color="#000000" style="isolation:auto;mix-blend-mode:normal"/> <circle cx="173.19" cy="157.03" r="1.7843" color="#000000" color-rendering="auto" enable-background="accumulate" fill="#d4d4d4" fill-rule="evenodd" image-rendering="auto" solid-color="#000000" style="isolation:auto;mix-blend-mode:normal"/> <rect x="167.63" y="163.07" width="42.969" height="14.743" ry="2" color="#000000" color-rendering="auto" enable-background="accumulate" fill="#f0f0f0" fill-rule="evenodd" image-rendering="auto" solid-color="#000000" style="isolation:auto;mix-blend-mode:normal"/> <path d="m170.97 165.41a1.0001 1.0001 0 1 0 0 2h35.484a1.0001 1.0001 0 1 0 0-2h-35.484z" color="#000000" color-rendering="auto" enable-background="accumulate" fill="#d4d4d4" fill-rule="evenodd" image-rendering="auto" solid-color="#000000" style="block-progression:tb;isolation:auto;mix-blend-mode:normal;text-decoration-color:#000000;text-decoration-line:none;text-decoration-style:solid;text-indent:0;text-transform:none;white-space:normal"/> <path d="m170.97 169.44a1.0001 1.0001 0 1 0 0 2h16.078a1.0001 1.0001 0 1 0 0-2h-16.078z" color="#000000" color-rendering="auto" enable-background="accumulate" fill="#d4d4d4" fill-rule="evenodd" image-rendering="auto" solid-color="#000000" style="block-progression:tb;isolation:auto;mix-blend-mode:normal;text-decoration-color:#000000;text-decoration-line:none;text-decoration-style:solid;text-indent:0;text-transform:none;white-space:normal"/> <path d="m170.97 173.48a1.0001 1.0001 0 1 0 0 2h32.516a1.0001 1.0001 0 1 0 0-2h-32.516z" color="#000000" color-rendering="auto" enable-background="accumulate" fill="#d4d4d4" fill-rule="evenodd" image-rendering="auto" solid-color="#000000" style="block-progression:tb;isolation:auto;mix-blend-mode:normal;text-decoration-color:#000000;text-decoration-line:none;text-decoration-style:solid;text-indent:0;text-transform:none;white-space:normal"/> <rect x="167.63" y="180.69" width="42.969" height="14.743" ry="2" color="#000000" color-rendering="auto" enable-background="accumulate" fill="#f0f0f0" fill-rule="evenodd" image-rendering="auto" solid-color="#000000" style="isolation:auto;mix-blend-mode:normal"/> <path d="m170.97 183.03c-1.3523-0.0191-1.3523 2.0191 0 2h25.594c1.3523 0.0191 1.3523-2.0191 0-2z" color="#000000" color-rendering="auto" enable-background="accumulate" fill="#d4d4d4" fill-rule="evenodd" image-rendering="auto" solid-color="#000000" style="block-progression:tb;isolation:auto;mix-blend-mode:normal;text-decoration-color:#000000;text-decoration-line:none;text-decoration-style:solid;text-indent:0;text-transform:none;white-space:normal"/> <path d="m170.97 187.06c-1.3523-0.0191-1.3523 2.0191 0 2h18.831c1.3523 0.0191 1.3523-2.0191 0-2z" color="#000000" color-rendering="auto" enable-background="accumulate" fill="#d4d4d4" fill-rule="evenodd" image-rendering="auto" solid-color="#000000" style="block-progression:tb;isolation:auto;mix-blend-mode:normal;text-decoration-color:#000000;text-decoration-line:none;text-decoration-style:solid;text-indent:0;text-transform:none;white-space:normal"/> <path d="m170.97 191.1c-1.3523-0.0191-1.3523 2.0191 0 2h14.979c1.3523 0.0191 1.3523-2.0191 0-2z" color="#000000" color-rendering="auto" enable-background="accumulate" fill="#d4d4d4" fill-rule="evenodd" image-rendering="auto" solid-color="#000000" style="block-progression:tb;isolation:auto;mix-blend-mode:normal;text-decoration-color:#000000;text-decoration-line:none;text-decoration-style:solid;text-indent:0;text-transform:none;white-space:normal"/> <rect x="167.63" y="198.32" width="42.969" height="14.743" ry="2" color="#000000" color-rendering="auto" enable-background="accumulate" fill="#f0f0f0" fill-rule="evenodd" image-rendering="auto" solid-color="#000000" style="isolation:auto;mix-blend-mode:normal"/> <path d="m170.97 200.66c-1.3523-0.0191-1.3523 2.0191 0 2h28.551c1.3523 0.0191 1.3523-2.0191 0-2z" color="#000000" color-rendering="auto" enable-background="accumulate" fill="#d4d4d4" fill-rule="evenodd" image-rendering="auto" solid-color="#000000" style="block-progression:tb;isolation:auto;mix-blend-mode:normal;text-decoration-color:#000000;text-decoration-line:none;text-decoration-style:solid;text-indent:0;text-transform:none;white-space:normal"/> <path d="m170.97 204.69c-1.3523-0.0191-1.3523 2.0191 0 2h6.2902c1.3523 0.0191 1.3523-2.0191 0-2z" color="#000000" color-rendering="auto" enable-background="accumulate" fill="#d4d4d4" fill-rule="evenodd" image-rendering="auto" solid-color="#000000" style="block-progression:tb;isolation:auto;mix-blend-mode:normal;text-decoration-color:#000000;text-decoration-line:none;text-decoration-style:solid;text-indent:0;text-transform:none;white-space:normal"/> <path d="m170.97 208.73c-1.3523-0.0191-1.3523 2.0191 0 2h18.14c1.3523 0.0191 1.3523-2.0191 0-2z" color="#000000" color-rendering="auto" enable-background="accumulate" fill="#d4d4d4" fill-rule="evenodd" image-rendering="auto" solid-color="#000000" style="block-progression:tb;isolation:auto;mix-blend-mode:normal;text-decoration-color:#000000;text-decoration-line:none;text-decoration-style:solid;text-indent:0;text-transform:none;white-space:normal"/> <rect x="167.63" y="215.94" width="42.969" height="14.743" ry="2" color="#000000" color-rendering="auto" enable-background="accumulate" fill="#f0f0f0" fill-rule="evenodd" image-rendering="auto" solid-color="#000000" style="isolation:auto;mix-blend-mode:normal"/> <path d="m170.97 218.28c-1.3523-0.0191-1.3523 2.0191 0 2h32.324c1.3523 0.0191 1.3523-2.0191 0-2z" color="#000000" color-rendering="auto" enable-background="accumulate" fill="#d4d4d4" fill-rule="evenodd" image-rendering="auto" solid-color="#000000" style="block-progression:tb;isolation:auto;mix-blend-mode:normal;text-decoration-color:#000000;text-decoration-line:none;text-decoration-style:solid;text-indent:0;text-transform:none;white-space:normal"/> <path d="m170.97 222.31c-1.3523-0.0191-1.3523 2.0191 0 2h28.721c1.3523 0.0191 1.3523-2.0191 0-2z" color="#000000" color-rendering="auto" enable-background="accumulate" fill="#d4d4d4" fill-rule="evenodd" image-rendering="auto" solid-color="#000000" style="block-progression:tb;isolation:auto;mix-blend-mode:normal;text-decoration-color:#000000;text-decoration-line:none;text-decoration-style:solid;text-indent:0;text-transform:none;white-space:normal"/> <path d="m170.97 226.35c-1.3523-0.0191-1.3523 2.0191 0 2h14.877c1.3523 0.0191 1.3523-2.0191 0-2z" color="#000000" color-rendering="auto" enable-background="accumulate" fill="#d4d4d4" fill-rule="evenodd" image-rendering="auto" solid-color="#000000" style="block-progression:tb;isolation:auto;mix-blend-mode:normal;text-decoration-color:#000000;text-decoration-line:none;text-decoration-style:solid;text-indent:0;text-transform:none;white-space:normal"/> <g transform="translate(4.0789 7.1762)" fill-rule="evenodd"> <path d="m233.51 141.71c-1.108 0-2 0.892-2 2v4.252l52.237 2.4508 52.237-2.4508v-4.252c0-1.108-0.892-2-2-2z" color="#000000" color-rendering="auto" enable-background="accumulate" fill="#f0f0f0" image-rendering="auto" solid-color="#000000" style="isolation:auto;mix-blend-mode:normal"/> <circle cx="234.64" cy="144.84" r="1.7843" color="#000000" color-rendering="auto" enable-background="accumulate" fill="#75d4ff" image-rendering="auto" solid-color="#000000" style="isolation:auto;mix-blend-mode:normal"/> <circle cx="239.99" cy="144.84" r="1.7843" color="#000000" color-rendering="auto" enable-background="accumulate" fill="#d4d4d4" image-rendering="auto" solid-color="#000000" style="isolation:auto;mix-blend-mode:normal"/> </g> <path d="m235.59 155.14v71.453c0 1.108 0.892 2 2 2h100.47c1.108 0 2-0.892 2-2v-71.453h-104.47z" color="#000000" color-rendering="auto" enable-background="accumulate" fill="#fff" fill-rule="evenodd" image-rendering="auto" solid-color="#000000" style="isolation:auto;mix-blend-mode:normal"/> <path d="m242.82 221.37 15.004-6.9844 15.004-20.748 15.004 6.7437 15.004-2.3463 15.004-7.5134 15.004-20.94" color="#000000" color-rendering="auto" enable-background="accumulate" fill="none" image-rendering="auto" solid-color="#000000" stroke="#75d4ff" stroke-linecap="round" stroke-linejoin="round" stroke-miterlimit="4" stroke-width="2" style="isolation:auto;mix-blend-mode:normal"/> <circle cx="241.8" cy="222.38" r="3.1083" color="#000000" color-rendering="auto" enable-background="accumulate" fill="#75d4ff" fill-rule="evenodd" image-rendering="auto" solid-color="#000000" style="isolation:auto;mix-blend-mode:normal"/> <circle cx="257.82" cy="214.39" r="3.1083" color="#000000" color-rendering="auto" enable-background="accumulate" fill="#75d4ff" fill-rule="evenodd" image-rendering="auto" solid-color="#000000" style="isolation:auto;mix-blend-mode:normal"/> <circle cx="272.82" cy="193.64" r="3.1083" color="#000000" color-rendering="auto" enable-background="accumulate" fill="#75d4ff" fill-rule="evenodd" image-rendering="auto" solid-color="#000000" style="isolation:auto;mix-blend-mode:normal"/> <circle cx="287.83" cy="200.38" r="3.1083" color="#000000" color-rendering="auto" enable-background="accumulate" fill="#75d4ff" fill-rule="evenodd" image-rendering="auto" solid-color="#000000" style="isolation:auto;mix-blend-mode:normal"/> <circle cx="303.82" cy="197.54" r="3.1083" color="#000000" color-rendering="auto" enable-background="accumulate" fill="#75d4ff" fill-rule="evenodd" image-rendering="auto" solid-color="#000000" style="isolation:auto;mix-blend-mode:normal"/> <circle cx="317.83" cy="190.52" r="3.1083" color="#000000" color-rendering="auto" enable-background="accumulate" fill="#75d4ff" fill-rule="evenodd" image-rendering="auto" solid-color="#000000" style="isolation:auto;mix-blend-mode:normal"/> <circle cx="332.84" cy="169.58" r="3.1083" color="#000000" color-rendering="auto" enable-background="accumulate" fill="#75d4ff" fill-rule="evenodd" image-rendering="auto" solid-color="#000000" style="isolation:auto;mix-blend-mode:normal"/> <path d="m242.82 209.34 15.004-8.77 15.004 7.7505 15.004-18.526 15.004-1.9547 15.004 12.878 15.004-10.948" color="#000000" color-rendering="auto" enable-background="accumulate" fill="none" image-rendering="auto" solid-color="#000000" stroke="#d4d4d4" stroke-linecap="round" stroke-linejoin="round" stroke-miterlimit="4" stroke-width="2" style="isolation:auto;mix-blend-mode:normal"/> <circle cx="242.82" cy="209.34" r="3.1083" color="#000000" color-rendering="auto" enable-background="accumulate" fill="#d4d4d4" fill-rule="evenodd" image-rendering="auto" solid-color="#000000" style="isolation:auto;mix-blend-mode:normal"/> <circle cx="257.82" cy="200.57" r="3.1083" color="#000000" color-rendering="auto" enable-background="accumulate" fill="#d4d4d4" fill-rule="evenodd" image-rendering="auto" solid-color="#000000" style="isolation:auto;mix-blend-mode:normal"/> <circle cx="272.82" cy="208.32" r="3.1083" color="#000000" color-rendering="auto" enable-background="accumulate" fill="#d4d4d4" fill-rule="evenodd" image-rendering="auto" solid-color="#000000" style="isolation:auto;mix-blend-mode:normal"/> <circle cx="287.83" cy="189.79" r="3.1083" color="#000000" color-rendering="auto" enable-background="accumulate" fill="#d4d4d4" fill-rule="evenodd" image-rendering="auto" solid-color="#000000" style="isolation:auto;mix-blend-mode:normal"/> <circle cx="302.83" cy="187.84" r="3.1083" color="#000000" color-rendering="auto" enable-background="accumulate" fill="#d4d4d4" fill-rule="evenodd" image-rendering="auto" solid-color="#000000" style="isolation:auto;mix-blend-mode:normal"/> <circle cx="317.83" cy="200.72" r="3.1083" color="#000000" color-rendering="auto" enable-background="accumulate" fill="#d4d4d4" fill-rule="evenodd" image-rendering="auto" solid-color="#000000" style="isolation:auto;mix-blend-mode:normal"/> <circle cx="332.84" cy="189.77" r="3.1083" color="#000000" color-rendering="auto" enable-background="accumulate" fill="#d4d4d4" fill-rule="evenodd" image-rendering="auto" solid-color="#000000" style="isolation:auto;mix-blend-mode:normal"/> <path d="m113.99 189.95s0.32565 3.5325 1.4858 4.6927c1.1602 1.1602 4.6927 1.4859 4.6927 1.4859s-3.5325 0.32564-4.6927 1.4858-1.4858 4.6927-1.4858 4.6927-0.32565-3.5325-1.4858-4.6927c-1.1602-1.1602-4.6927-1.4858-4.6927-1.4858s3.5325-0.32565 4.6927-1.4859c1.1602-1.1602 1.4858-4.6927 1.4858-4.6927z" color="#000000" color-rendering="auto" enable-background="accumulate" fill="#fff" fill-rule="evenodd" image-rendering="auto" solid-color="#000000" style="isolation:auto;mix-blend-mode:normal"/> <path d="m393.96 209.89s0.28265 3.0662 1.2897 4.0732 4.0732 1.2897 4.0732 1.2897-3.0662 0.28266-4.0732 1.2897c-1.007 1.007-1.2897 4.0732-1.2897 4.0732s-0.28266-3.0662-1.2897-4.0732c-1.007-1.007-4.0732-1.2897-4.0732-1.2897s3.0662-0.28266 4.0732-1.2897 1.2897-4.0732 1.2897-4.0732z" color="#000000" color-rendering="auto" enable-background="accumulate" fill="#fff" fill-rule="evenodd" image-rendering="auto" solid-color="#000000" style="isolation:auto;mix-blend-mode:normal"/> <path d="m202.9 100.18s0.25042 2.7164 1.1426 3.6086c0.89216 0.89217 3.6086 1.1426 3.6086 1.1426s-2.7164 0.25041-3.6086 1.1426c-0.89216 0.89216-1.1426 3.6086-1.1426 3.6086s-0.25041-2.7164-1.1426-3.6086c-0.89217-0.89217-3.6086-1.1426-3.6086-1.1426s2.7164-0.25041 3.6086-1.1426c0.89217-0.89216 1.1426-3.6086 1.1426-3.6086z" color="#000000" color-rendering="auto" enable-background="accumulate" fill="#fff" fill-rule="evenodd" image-rendering="auto" solid-color="#000000" style="isolation:auto;mix-blend-mode:normal"/> <path d="m72.594 249.86s0.34714 3.7657 1.5839 5.0024c1.2368 1.2368 5.0025 1.5839 5.0025 1.5839s-3.7657 0.34714-5.0025 1.5839c-1.2368 1.2368-1.5839 5.0025-1.5839 5.0025s-0.34714-3.7657-1.5839-5.0025c-1.2368-1.2368-5.0025-1.5839-5.0025-1.5839s3.7657-0.34714 5.0025-1.5839c1.2368-1.2368 1.5839-5.0024 1.5839-5.0024z" color="#000000" color-rendering="auto" enable-background="accumulate" fill="#fff" fill-rule="evenodd" image-rendering="auto" solid-color="#000000" style="isolation:auto;mix-blend-mode:normal"/> <circle cx="403.14" cy="186.5" r="1.4274" color="#000000" color-rendering="auto" enable-background="accumulate" fill="#fff" fill-rule="evenodd" image-rendering="auto" solid-color="#000000" style="isolation:auto;mix-blend-mode:normal"/> <circle cx="237.77" cy="103.1" r="1.4274" color="#000000" color-rendering="auto" enable-background="accumulate" fill="#fff" fill-rule="evenodd" image-rendering="auto" solid-color="#000000" style="isolation:auto;mix-blend-mode:normal"/> <circle cx="105.22" cy="249.1" r="1.4274" color="#000000" color-rendering="auto" enable-background="accumulate" fill="#fff" fill-rule="evenodd" image-rendering="auto" solid-color="#000000" style="isolation:auto;mix-blend-mode:normal"/> <circle cx="73.002" cy="225.45" r="1.4274" color="#000000" color-rendering="auto" enable-background="accumulate" fill="#fff" fill-rule="evenodd" image-rendering="auto" solid-color="#000000" style="isolation:auto;mix-blend-mode:normal"/> <circle cx="122.76" cy="149.59" r="1.4274" color="#000000" color-rendering="auto" enable-background="accumulate" fill="#fff" fill-rule="evenodd" image-rendering="auto" solid-color="#000000" style="isolation:auto;mix-blend-mode:normal"/> <circle cx="379.28" cy="243.8" r="1.4274" color="#000000" color-rendering="auto" enable-background="accumulate" fill="#fff" fill-rule="evenodd" image-rendering="auto" solid-color="#000000" style="isolation:auto;mix-blend-mode:normal"/> <circle cx="387.03" cy="156.52" r="1.4274" color="#000000" color-rendering="auto" enable-background="accumulate" fill="#fff" fill-rule="evenodd" image-rendering="auto" solid-color="#000000" style="isolation:auto;mix-blend-mode:normal"/> <circle cx="437.19" cy="260.93" r="1.4274" color="#000000" color-rendering="auto" enable-background="accumulate" fill="#fff" fill-rule="evenodd" image-rendering="auto" solid-color="#000000" style="isolation:auto;mix-blend-mode:normal"/> <circle cx="306.28" cy="92.903" r="1.4274" color="#000000" color-rendering="auto" enable-background="accumulate" fill="#fff" fill-rule="evenodd" image-rendering="auto" solid-color="#000000" style="isolation:auto;mix-blend-mode:normal"/> <path d="m94.617 100.39s0.25042 2.7164 1.1426 3.6086c0.89216 0.89218 3.6086 1.1426 3.6086 1.1426s-2.7164 0.25041-3.6086 1.1426c-0.89216 0.89217-1.1426 3.6086-1.1426 3.6086s-0.25041-2.7164-1.1426-3.6086c-0.89217-0.89216-3.6086-1.1426-3.6086-1.1426s2.7164-0.25041 3.6086-1.1426c0.89217-0.89216 1.1426-3.6086 1.1426-3.6086z" color="#000000" color-rendering="auto" enable-background="accumulate" fill="#fff" fill-rule="evenodd" image-rendering="auto" solid-color="#000000" style="isolation:auto;mix-blend-mode:normal"/> <path d="m461.87 196.43s0.44386 4.8149 2.0253 6.3964c1.5814 1.5814 6.3964 2.0253 6.3964 2.0253s-4.815 0.44388-6.3964 2.0253c-1.5814 1.5814-2.0253 6.3964-2.0253 6.3964s-0.44387-4.815-2.0253-6.3964c-1.5814-1.5814-6.3964-2.0253-6.3964-2.0253s4.8149-0.44387 6.3964-2.0253 2.0253-6.3964 2.0253-6.3964z" color="#000000" color-rendering="auto" enable-background="accumulate" fill="#fff" fill-rule="evenodd" image-rendering="auto" solid-color="#000000" style="isolation:auto;mix-blend-mode:normal"/> <path d="m34.869 177.67s0.50836 5.5144 2.3195 7.3256c1.8111 1.8112 7.3256 2.3195 7.3256 2.3195s-5.5145 0.50835-7.3256 2.3195c-1.8111 1.8112-2.3195 7.3256-2.3195 7.3256s-0.50836-5.5144-2.3195-7.3256c-1.8112-1.8111-7.3256-2.3195-7.3256-2.3195s5.5145-0.50836 7.3256-2.3195c1.8111-1.8112 2.3195-7.3256 2.3195-7.3256z" color="#000000" color-rendering="auto" enable-background="accumulate" fill="#fff" fill-rule="evenodd" image-rendering="auto" solid-color="#000000" style="isolation:auto;mix-blend-mode:normal"/> <path d="m368.88 83.666s0.26116 2.833 1.1916 3.7634c0.93045 0.93046 3.7634 1.1916 3.7634 1.1916s-2.833 0.26117-3.7634 1.1916c-0.93046 0.93046-1.1916 3.7634-1.1916 3.7634s-0.26116-2.833-1.1916-3.7634c-0.93046-0.93045-3.7634-1.1916-3.7634-1.1916s2.833-0.26116 3.7634-1.1916 1.1916-3.7634 1.1916-3.7634z" color="#000000" color-rendering="auto" enable-background="accumulate" fill="#fff" fill-rule="evenodd" image-rendering="auto" solid-color="#000000" style="isolation:auto;mix-blend-mode:normal"/> <circle cx="203.92" cy="57.014" r="1.4274" color="#000000" color-rendering="auto" enable-background="accumulate" fill="#fff" fill-rule="evenodd" image-rendering="auto" solid-color="#000000" style="isolation:auto;mix-blend-mode:normal"/> </g> </svg>